{
  "accessors": [
    {
      "bufferView": 2,
      "componentType": 5126,
      "count": 16,
      "max": [
        -0.30000001192092896,
        0.0,
        2.6600000858306885
      ],
      "min": [
        -2.5299999713897705,
        -2.375,
        2.375
      ],
      "type": "VEC3"
    },
    {
      "bufferView": 2,
      "byteOffset": 192,
      "componentType": 5126,
      "count": 16,
      "max": [
        1.0,
        1.0,
        0.0
      ],
      "min": [
        -1.0,
        -1.0,
        0.0
      ],
      "type": "VEC3"
    },
    {
      "bufferView": 1,
      "componentType": 5126,
      "count": 16,
      "max": [
        4.318183898925781,
        0.34503600001335144
      ],
      "min": [
        0.0,
        0.0
      ],
      "type": "VEC2"
    },
    {
      "bufferView": 0,
      "componentType": 5125,
      "count": 24,
      "type": "SCALAR"
    },
    {
      "bufferView": 2,
      "byteOffset": 384,
      "componentType": 5126,
      "count": 48,
      "max": [
        -0.30000001192092896,
        0.14000000059604645,
        2.374000072479248
      ],
      "min": [
        -2.6700000762939453,
        -2.799999952316284,
        0.0010000000474974513
      ],
      "type": "VEC3"
    },
    {
      "bufferView": 2,
      "byteOffset": 960,
      "componentType": 5126,
      "count": 48,
      "max": [
        1.0,
        1.0,
        1.0
      ],
      "min": [
        -1.0,
        -1.0,
        -1.0
      ],
      "type": "VEC3"
    },
    {
      "bufferView": 1,
      "byteOffset": 128,
      "componentType": 5126,
      "count": 48,
      "max": [
        11.048322677612305,
        3.4909980297088623
      ],
      "min": [
        -0.7766209840774536,
        -0.5724560022354126
      ],
      "type": "VEC2"
    },
    {
      "bufferView": 0,
      "byteOffset": 96,
      "componentType": 5125,
      "count": 72,
      "type": "SCALAR"
    },
    {
      "bufferView": 2,
      "byteOffset": 1536,
      "componentType": 5126,
      "count": 310,
      "max": [
        -0.33000001311302185,
        -0.2800000011920929,
        2.375
      ],
      "min": [
        -2.25,
        -2.4549999237060547,
        0.09000000357627869
      ],
      "type": "VEC3"
    },
    {
      "bufferView": 2,
      "byteOffset": 5256,
      "componentType": 5126,
      "count": 310,
      "max": [
        1.0,
        1.0,
        1.0
      ],
      "min": [
        -1.0,
        -1.0,
        -1.0
      ],
      "type": "VEC3"
    },
    {
      "bufferView": 1,
      "byteOffset": 512,
      "componentType": 5126,
      "count": 310,
      "max": [
        3.310563087463379,
        0.006053000222891569
      ],
      "min": [
        -0.6679610013961792,
        -1.0735540390014648
      ],
      "type": "VEC2"
    },
    {
      "bufferView": 0,
      "byteOffset": 384,
      "componentType": 5125,
      "count": 468,
      "type": "SCALAR"
    },
    {
      "bufferView": 2,
      "byteOffset": 8976,
      "componentType": 5126,
      "count": 48,
      "max": [
        0.0,
        0.14000000059604645,
        5.019000053405762
      ],
      "min": [
        -2.6700000762939453,
        -2.799999952316284,
        2.6610000133514404
      ],
      "type": "VEC3"
    },
    {
      "bufferView": 2,
      "byteOffset": 9552,
      "componentType": 5126,
      "count": 48,
      "max": [
        1.0,
        1.0,
        1.0
      ],
      "min": [
        -1.0,
        -1.0,
        -1.0
      ],
      "type": "VEC3"
    },
    {
      "bufferView": 1,
      "byteOffset": 2992,
      "componentType": 5126,
      "count": 48,
      "max": [
        11.048322677612305,
        3.224853038787842
      ],
      "min": [
        -0.7550410032272339,
        -0.4575890004634857
      ],
      "type": "VEC2"
    },
    {
      "bufferView": 0,
      "byteOffset": 2256,
      "componentType": 5125,
      "count": 72,
      "type": "SCALAR"
    },
    {
      "bufferView": 2,
      "byteOffset": 10128,
      "componentType": 5126,
      "count": 252,
      "max": [
        -0.335999995470047,
        -0.9350000023841858,
        3.555530071258545
      ],
      "min": [
        -1.5950000286102295,
        -2.259999990463257,
        0.25999999046325684
      ],
      "type": "VEC3"
    },
    {
      "bufferView": 2,
      "byteOffset": 13152,
      "componentType": 5126,
      "count": 252,
      "max": [
        1.0,
        1.0,
        0.8022032380104065
      ],
      "min": [
        -1.0,
        -1.0,
        -1.0
      ],
      "type": "VEC3"
    },
    {
      "bufferView": 1,
      "byteOffset": 3376,
      "componentType": 5126,
      "count": 252,
      "max": [
        9.80770206451416,
        2.3820090293884277
      ],
      "min": [
        0.0,
        0.0
      ],
      "type": "VEC2"
    },
    {
      "bufferView": 0,
      "byteOffset": 2544,
      "componentType": 5125,
      "count": 684,
      "type": "SCALAR"
    },
    {
      "bufferView": 2,
      "byteOffset": 16176,
      "componentType": 5126,
      "count": 120,
      "max": [
        -0.3099899888038635,
        -0.9350000023841858,
        3.6600000858306885
      ],
      "min": [
        -2.5199999809265137,
        -2.365000009536743,
        2.375
      ],
      "type": "VEC3"
    },
    {
      "bufferView": 2,
      "byteOffset": 17616,
      "componentType": 5126,
      "count": 120,
      "max": [
        1.0,
        1.0,
        1.0
      ],
      "min": [
        -1.0,
        -1.0,
        -1.0
      ],
      "type": "VEC3"
    },
    {
      "bufferView": 1,
      "byteOffset": 5392,
      "componentType": 5126,
      "count": 120,
      "max": [
        7.327273845672607,
        1.555690050125122
      ],
      "min": [
        0.0,
        0.0
      ],
      "type": "VEC2"
    },
    {
      "bufferView": 0,
      "byteOffset": 5280,
      "componentType": 5125,
      "count": 180,
      "type": "SCALAR"
    },
    {
      "bufferView": 2,
      "byteOffset": 19056,
      "componentType": 5126,
      "count": 546,
      "max": [
        0.009999999776482582,
        0.009999999776482582,
        2.7119998931884766
      ],
      "min": [
        -2.4100000858306885,
        -2.375,
        2.4149999618530273
      ],
      "type": "VEC3"
    },
    {
      "bufferView": 2,
      "byteOffset": 25608,
      "componentType": 5126,
      "count": 546,
      "max": [
        1.0,
        1.0,
        1.0
      ],
      "min": [
        -1.0,
        -1.0,
        -1.0
      ],
      "type": "VEC3"
    },
    {
      "bufferView": 1,
      "byteOffset": 6352,
      "componentType": 5126,
      "count": 546,
      "max": [
        0.09454499930143356,
        0.0121069997549057
      ],
      "min": [
        -0.018182000145316124,
        -0.07606799900531769
      ],
      "type": "VEC2"
    },
    {
      "bufferView": 0,
      "byteOffset": 6000,
      "componentType": 5125,
      "count": 2880,
      "type": "SCALAR"
    },
    {
      "bufferView": 2,
      "byteOffset": 32160,
      "componentType": 5126,
      "count": 682,
      "max": [
        -0.30000001192092896,
        -0.4000000059604645,
        2.375
      ],
      "min": [
        -2.5299999713897705,
        -2.404860019683838,
        0.0
      ],
      "type": "VEC3"
    },
    {
      "bufferView": 2,
      "byteOffset": 40344,
      "componentType": 5126,
      "count": 682,
      "max": [
        1.0,
        1.0,
        1.0
      ],
      "min": [
        -1.0,
        -1.0,
        -1.0
      ],
      "type": "VEC3"
    },
    {
      "bufferView": 1,
      "byteOffset": 10720,
      "componentType": 5126,
      "count": 682,
      "max": [
        12.112870216369629,
        0.5288670063018799
      ],
      "min": [
        -3.7359941005706787,
        -0.33504998683929443
      ],
      "type": "VEC2"
    },
    {
      "bufferView": 0,
      "byteOffset": 17520,
      "componentType": 5125,
      "count": 1392,
      "type": "SCALAR"
    },
    {
      "bufferView": 2,
      "byteOffset": 48528,
      "componentType": 5126,
      "count": 318,
      "max": [
        3.0,
        3.140000104904175,
        2.6600000858306885
      ],
      "min": [
        -5.670000076293945,
        -5.800000190734863,
        0.0
      ],
      "type": "VEC3"
    },
    {
      "bufferView": 2,
      "byteOffset": 52344,
      "componentType": 5126,
      "count": 318,
      "max": [
        1.0,
        0.9999963641166687,
        1.0
      ],
      "min": [
        -1.0,
        -1.0,
        0.0
      ],
      "type": "VEC3"
    },
    {
      "bufferView": 1,
      "byteOffset": 16176,
      "componentType": 5126,
      "count": 318,
      "max": [
        26.821067810058594,
        10.823246002197266
      ],
      "min": [
        -1.0387909412384033,
        -5.340508937835693
      ],
      "type": "VEC2"
    },
    {
      "bufferView": 0,
      "byteOffset": 23088,
      "componentType": 5125,
      "count": 642,
      "type": "SCALAR"
    },
    {
      "bufferView": 2,
      "byteOffset": 56160,
      "componentType": 5126,
      "count": 800,
      "max": [
        -0.3700000047683716,
        -0.8989999890327454,
        2.432499885559082
      ],
      "min": [
        -1.63100004196167,
        -2.190000057220459,
        0.32249999046325684
      ],
      "type": "VEC3"
    },
    {
      "bufferView": 2,
      "byteOffset": 65760,
      "componentType": 5126,
      "count": 800,
      "max": [
        1.0,
        1.0,
        1.0
      ],
      "min": [
        -1.0,
        -1.0,
        -1.0
      ],
      "type": "VEC3"
    },
    {
      "bufferView": 1,
      "byteOffset": 18720,
      "componentType": 5126,
      "count": 800,
      "max": [
        0.0,
        0.46189698576927185
      ],
      "min": [
        -2.330048084259033,
        0.0
      ],
      "type": "VEC2"
    },
    {
      "bufferView": 0,
      "byteOffset": 25656,
      "componentType": 5125,
      "count": 2400,
      "type": "SCALAR"
    },
    {
      "bufferView": 2,
      "byteOffset": 75360,
      "componentType": 5126,
      "count": 330,
      "max": [
        -0.30000001192092896,
        -0.02500000037252903,
        2.4700000286102295
      ],
      "min": [
        -2.505000114440918,
        -2.484999895095825,
        0.0949999988079071
      ],
      "type": "VEC3"
    },
    {
      "bufferView": 2,
      "byteOffset": 79320,
      "componentType": 5126,
      "count": 330,
      "max": [
        1.0,
        1.0,
        1.0
      ],
      "min": [
        -1.0,
        -1.0,
        -1.0
      ],
      "type": "VEC3"
    },
    {
      "bufferView": 1,
      "byteOffset": 25120,
      "componentType": 5126,
      "count": 330,
      "max": [
        5.789419174194336,
        1.0502610206604004
      ],
      "min": [
        -2.7910680770874023,
        -1.3606150150299072
      ],
      "type": "VEC2"
    },
    {
      "bufferView": 0,
      "byteOffset": 35256,
      "componentType": 5125,
      "count": 504,
      "type": "SCALAR"
    }
  ],
  "asset": {
    "extras": {
      "author": "ContinoxStairs (https://sketchfab.com/ContinoxStairs)",
      "license": "CC-BY-4.0 (http://creativecommons.org/licenses/by/4.0/)",
      "source": "https://sketchfab.com/3d-models/modern-staircase-by-continox-24a6585ae7704544b1c76dd95917f5be",
      "title": "Modern Staircase by Continox"
    },
    "generator": "Sketchfab-15.47.0",
    "version": "2.0"
  },
  "bufferViews": [
    {
      "buffer": 0,
      "byteLength": 37272,
      "name": "floatBufferViews",
      "target": 34963
    },
    {
      "buffer": 0,
      "byteLength": 27760,
      "byteOffset": 37272,
      "byteStride": 8,
      "name": "floatBufferViews",
      "target": 34962
    },
    {
      "buffer": 0,
      "byteLength": 83280,
      "byteOffset": 65032,
      "byteStride": 12,
      "name": "floatBufferViews",
      "target": 34962
    }
  ],
  "buffers": [
    {
      "byteLength": 148312,
      "uri": "scene.bin"
    }
  ],
  "images": [
    {
      "uri": "textures/x0023_TREADcon_ash.jpg1111_baseColor.jpeg"
    }
  ],
  "materials": [
    {
      "doubleSided": true,
      "name": "x0023_BEGIN_OPENING1111",
      "pbrMetallicRoughness": {
        "metallicFactor": 0.0,
        "roughnessFactor": 0.6
      }
    },
    {
      "doubleSided": true,
      "name": "x0023_BEGIN_PLATFORM1111",
      "pbrMetallicRoughness": {
        "metallicFactor": 0.0,
        "roughnessFactor": 0.6
      }
    },
    {
      "alphaMode": "BLEND",
      "doubleSided": true,
      "name": "x0023_BEGIN_WALL0_x002C_90_x002C_90_x002C_90_x002C_3",
      "pbrMetallicRoughness": {
        "baseColorFactor": [
          0.9,
          0.9,
          0.9,
          0.5
        ],
        "metallicFactor": 0.0,
        "roughnessFactor": 0.6
      }
    },
    {
      "doubleSided": true,
      "name": "x0023_BEGIN_WALL1111",
      "pbrMetallicRoughness": {
        "metallicFactor": 0.0,
        "roughnessFactor": 0.4
      }
    },
    {
      "alphaMode": "BLEND",
      "doubleSided": true,
      "name": "x0023_BOTTOMRAIL0_x002C_820_x002C_80_x002C_70_x002C_3",
      "pbrMetallicRoughness": {
        "baseColorFactor": [
          0.7541861615810856,
          0.8735865003210654,
          0.9406652057935939,
          0.5
        ],
        "metallicFactor": 0.0,
        "roughnessFactor": 0.26705019030466237
      }
    },
    {
      "doubleSided": true,
      "name": "x0023_BOTTOMRAIL0_x002C_90_x002C_90_x002C_91",
      "pbrMetallicRoughness": {
        "baseColorFactor": [
          0.9,
          0.9,
          0.9,
          1.0
        ],
        "metallicFactor": 0.0,
        "roughnessFactor": 0.6
      }
    },
    {
      "doubleSided": true,
      "name": "x0023_OBJECT3D1111",
      "pbrMetallicRoughness": {
        "baseColorFactor": [
          0.21558471835201182,
          0.21902988203305945,
          0.2307903924940071,
          1.0
        ],
        "metallicFactor": 0.0,
        "roughnessFactor": 0.6
      }
    },
    {
      "doubleSided": true,
      "name": "x0023_STRING0001",
      "pbrMetallicRoughness": {
        "baseColorFactor": [
          0.0,
          0.0,
          0.0,
          1.0
        ],
        "metallicFactor": 0.0,
        "roughnessFactor": 0.6
      }
    },
    {
      "doubleSided": true,
      "name": "x0023_TREAD0_x002C_90_x002C_90_x002C_91",
      "pbrMetallicRoughness": {
        "baseColorFactor": [
          0.9,
          0.9,
          0.9,
          1.0
        ],
        "metallicFactor": 0.0,
        "roughnessFactor": 0.6
      }
    },
    {
      "doubleSided": true,
      "name": "x0023_TREADcon_ash.jpg1111",
      "pbrMetallicRoughness": {
        "baseColorTexture": {
          "index": 0
        },
        "metallicFactor": 0.0,
        "roughnessFactor": 0.6
      }
    }
  ],
  "meshes": [
    {
      "name": "_x0023_BEGIN_OPENING1111",
      "primitives": [
        {
          "attributes": {
            "NORMAL": 1,
            "POSITION": 0,
            "TEXCOORD_0": 2
          },
          "indices": 3,
          "material": 0,
          "mode": 4
        }
      ]
    },
    {
      "name": "_x0023_BEGIN_WALL1111",
      "primitives": [
        {
          "attributes": {
            "NORMAL": 5,
            "POSITION": 4,
            "TEXCOORD_0": 6
          },
          "indices": 7,
          "material": 3,
          "mode": 4
        }
      ]
    },
    {
      "name": "_x0023_BEGIN_PLATFORM1111",
      "primitives": [
        {
          "attributes": {
            "NORMAL": 9,
            "POSITION": 8,
            "TEXCOORD_0": 10
          },
          "indices": 11,
          "material": 1,
          "mode": 4
        }
      ]
    },
    {
      "name": "_x0023_BEGIN_WALL0_x002C_90_x002C_90_x002C_90_x002C_3",
      "primitives": [
        {
          "attributes": {
            "NORMAL": 13,
            "POSITION": 12,
            "TEXCOORD_0": 14
          },
          "indices": 15,
          "material": 2,
          "mode": 4
        }
      ]
    },
    {
      "name": "_x0023_BOTTOMRAIL0_x002C_820_x002C_80_x002C_70_x002C_3",
      "primitives": [
        {
          "attributes": {
            "NORMAL": 17,
            "POSITION": 16,
            "TEXCOORD_0": 18
          },
          "indices": 19,
          "material": 4,
          "mode": 4
        }
      ]
    },
    {
      "name": "_x0023_BOTTOMRAIL0_x002C_820_x002C_80_x002C_70_x002C_3",
      "primitives": [
        {
          "attributes": {
            "NORMAL": 21,
            "POSITION": 20,
            "TEXCOORD_0": 22
          },
          "indices": 23,
          "material": 4,
          "mode": 4
        }
      ]
    },
    {
      "name": "_x0023_BOTTOMRAIL0_x002C_90_x002C_90_x002C_91",
      "primitives": [
        {
          "attributes": {
            "NORMAL": 25,
            "POSITION": 24,
            "TEXCOORD_0": 26
          },
          "indices": 27,
          "material": 5,
          "mode": 4
        }
      ]
    },
    {
      "name": "_x0023_STRING0001",
      "primitives": [
        {
          "attributes": {
            "NORMAL": 29,
            "POSITION": 28,
            "TEXCOORD_0": 30
          },
          "indices": 31,
          "material": 7,
          "mode": 4
        }
      ]
    },
    {
      "name": "_x0023_OBJECT3D1111",
      "primitives": [
        {
          "attributes": {
            "NORMAL": 33,
            "POSITION": 32,
            "TEXCOORD_0": 34
          },
          "indices": 35,
          "material": 6,
          "mode": 4
        }
      ]
    },
    {
      "name": "_x0023_TREAD0_x002C_90_x002C_90_x002C_91",
      "primitives": [
        {
          "attributes": {
            "NORMAL": 37,
            "POSITION": 36,
            "TEXCOORD_0": 38
          },
          "indices": 39,
          "material": 8,
          "mode": 4
        }
      ]
    },
    {
      "name": "_x0023_TREADcon_ash.jpg1111",
      "primitives": [
        {
          "attributes": {
            "NORMAL": 41,
            "POSITION": 40,
            "TEXCOORD_0": 42
          },
          "indices": 43,
          "material": 9,
          "mode": 4
        }
      ]
    }
  ],
  "nodes": [
    {
      "children": [
        1
      ],
      "matrix": [
        1.0,
        0.0,
        0.0,
        0.0,
        0.0,
        2.220446049250313e-16,
        -1.0,
        0.0,
        0.0,
        1.0,
        2.220446049250313e-16,
        0.0,
        0.0,
        0.0,
        0.0,
        1.0
      ],
      "name": "Sketchfab_model"
    },
    {
      "children": [
        2
      ],
      "name": "Collada visual scene group"
    },
    {
      "children": [
        3,
        4,
        5,
        6,
        7,
        8,
        9,
        10,
        11,
        12,
        13
      ],
      "name": "StairCon"
    },
    {
      "mesh": 0,
      "name": "_x0023_BEGIN_OPENING1111"
    },
    {
      "mesh": 1,
      "name": "_x0023_BEGIN_WALL1111"
    },
    {
      "mesh": 2,
      "name": "_x0023_BEGIN_PLATFORM1111"
    },
    {
      "mesh": 3,
      "name": "_x0023_BEGIN_WALL0_x002C_90_x002C_90_x002C_90_x002C_3"
    },
    {
      "mesh": 4,
      "name": "_x0023_BOTTOMRAIL0_x002C_820_x002C_80_x002C_70_x002C_3"
    },
    {
      "mesh": 5,
      "name": "_x0023_BOTTOMRAIL0_x002C_820_x002C_80_x002C_70_x002C_3"
    },
    {
      "mesh": 6,
      "name": "_x0023_BOTTOMRAIL0_x002C_90_x002C_90_x002C_91"
    },
    {
      "mesh": 7,
      "name": "_x0023_STRING0001"
    },
    {
      "mesh": 8,
      "name": "_x0023_OBJECT3D1111"
    },
    {
      "mesh": 9,
      "name": "_x0023_TREAD0_x002C_90_x002C_90_x002C_91"
    },
    {
      "mesh": 10,
      "name": "_x0023_TREADcon_ash.jpg1111"
    }
  ],
  "samplers": [
    {
      "magFilter": 9729,
      "minFilter": 9987,
      "wrapS": 10497,
      "wrapT": 10497
    }
  ],
  "scene": 0,
  "scenes": [
    {
      "name": "Sketchfab_Scene",
      "nodes": [
        0
      ]
    }
  ],
  "textures": [
    {
      "sampler": 0,
      "source": 0
    }
  ]
}
